<svg width="102" height="71" viewBox="0 0 102 71" fill="none" xmlns="http://www.w3.org/2000/svg">
<path fill-rule="evenodd" clip-rule="evenodd" d="M46.7972 17.4939C43.2825 13.9792 37.7816 13.7816 37.7816 13.7816C37.7816 13.7816 37.9792 19.2825 41.4939 22.7972C45.0086 26.3119 50.5095 26.5095 50.5095 26.5095C50.5095 26.5095 50.3119 21.0086 46.7972 17.4939Z" stroke="#13AA57" stroke-width="0.75"/>
<path fill-rule="evenodd" clip-rule="evenodd" d="M49.1299 40.8799C49.1299 42.951 50.6299 44.6299 50.6299 44.6299C50.6299 44.6299 52.1299 42.951 52.1299 40.8799C52.1299 38.8088 50.6299 37.1299 50.6299 37.1299C50.6299 37.1299 49.1299 38.8088 49.1299 40.8799Z" fill="#13AA57" stroke="#13AA57" stroke-width="0.5"/>
<path fill-rule="evenodd" clip-rule="evenodd" d="M49.6299 13.8799C49.6299 15.951 51.1299 17.6299 51.1299 17.6299C51.1299 17.6299 52.6299 15.951 52.6299 13.8799C52.6299 11.8088 51.1299 10.1299 51.1299 10.1299C51.1299 10.1299 49.6299 11.8088 49.6299 13.8799Z" fill="#13AA57" stroke="#13AA57" stroke-width="0.5"/>
<path fill-rule="evenodd" clip-rule="evenodd" d="M64.3799 28.6299C66.451 28.6299 68.1299 27.1299 68.1299 27.1299C68.1299 27.1299 66.451 25.6299 64.3799 25.6299C62.3089 25.6299 60.6299 27.1299 60.6299 27.1299C60.6299 27.1299 62.3089 28.6299 64.3799 28.6299Z" fill="#13AA57" stroke="#13AA57" stroke-width="0.5"/>
<path fill-rule="evenodd" clip-rule="evenodd" d="M37.3799 29.1299C39.451 29.1299 41.1299 27.6299 41.1299 27.6299C41.1299 27.6299 39.451 26.1299 37.3799 26.1299C35.3089 26.1299 33.6299 27.6299 33.6299 27.6299C33.6299 27.6299 35.3089 29.1299 37.3799 29.1299Z" fill="#13AA57" stroke="#13AA57" stroke-width="0.5"/>
<path fill-rule="evenodd" clip-rule="evenodd" d="M60.2972 30.9939C56.7825 27.4792 51.2816 27.2816 51.2816 27.2816C51.2816 27.2816 51.4792 32.7825 54.9939 36.2972C58.5086 39.8119 64.0095 40.0095 64.0095 40.0095C64.0095 40.0095 63.8119 34.5086 60.2972 30.9939Z" stroke="#13AA57" stroke-width="0.75"/>
<path fill-rule="evenodd" clip-rule="evenodd" d="M41.4939 30.9939C37.9792 34.5086 37.7816 40.0095 37.7816 40.0095C37.7816 40.0095 43.2825 39.8119 46.7972 36.2972C50.3119 32.7825 50.5095 27.2816 50.5095 27.2816C50.5095 27.2816 45.0086 27.4792 41.4939 30.9939Z" stroke="#13AA57" stroke-width="0.75"/>
<path fill-rule="evenodd" clip-rule="evenodd" d="M54.9939 17.4939C51.4792 21.0086 51.2816 26.5095 51.2816 26.5095C51.2816 26.5095 56.7825 26.3119 60.2972 22.7972C63.8119 19.2825 64.0095 13.7816 64.0095 13.7816C64.0095 13.7816 58.5086 13.9792 54.9939 17.4939Z" stroke="#13AA57" stroke-width="0.75"/>
<path fill-rule="evenodd" clip-rule="evenodd" d="M43.8423 30.8422C41.792 32.8925 41.7209 36.1455 41.7209 36.1455C41.7209 36.1455 44.974 36.0745 47.0242 34.0242C49.0745 31.9739 49.1456 28.7209 49.1456 28.7209C49.1456 28.7209 45.8925 28.792 43.8423 30.8422Z" fill="#13AA57" stroke="#13AA57" stroke-width="0.525"/>
<path fill-rule="evenodd" clip-rule="evenodd" d="M54.8423 19.8422C52.792 21.8925 52.7209 25.1455 52.7209 25.1455C52.7209 25.1455 55.974 25.0745 58.0242 23.0242C60.0745 20.9739 60.1456 17.7209 60.1456 17.7209C60.1456 17.7209 56.8925 17.792 54.8423 19.8422Z" fill="#13AA57" stroke="#13AA57" stroke-width="0.525"/>
<path fill-rule="evenodd" clip-rule="evenodd" d="M54.8423 34.0242C56.8925 36.0744 60.1456 36.1455 60.1456 36.1455C60.1456 36.1455 60.0745 32.8924 58.0242 30.8422C55.974 28.7919 52.7209 28.7209 52.7209 28.7209C52.7209 28.7209 52.792 31.9739 54.8423 34.0242Z" fill="#13AA57" stroke="#13AA57" stroke-width="0.525"/>
<path fill-rule="evenodd" clip-rule="evenodd" d="M43.8423 23.0242C45.8925 25.0744 49.1456 25.1455 49.1456 25.1455C49.1456 25.1455 49.0745 21.8924 47.0242 19.8422C44.974 17.7919 41.7209 17.7209 41.7209 17.7209C41.7209 17.7209 41.792 20.9739 43.8423 23.0242Z" fill="#13AA57" stroke="#13AA57" stroke-width="0.525"/>
<path d="M6.93 66.216C5.058 66.216 3.486 65.652 2.214 64.524C0.954 63.384 0.324 61.878 0.324 60.006C0.324 58.134 0.954 56.634 2.214 55.506C3.486 54.366 5.058 53.796 6.93 53.796C8.25 53.796 9.348 54.096 10.224 54.696C11.112 55.296 11.772 56.04 12.204 56.928L9.144 58.494C8.952 58.086 8.658 57.738 8.262 57.45C7.878 57.15 7.434 57 6.93 57C6.066 57 5.364 57.288 4.824 57.864C4.284 58.44 4.014 59.154 4.014 60.006C4.014 60.858 4.284 61.572 4.824 62.148C5.364 62.724 6.066 63.012 6.93 63.012C7.266 63.012 7.614 62.958 7.974 62.85C8.334 62.742 8.61 62.616 8.802 62.472V62.04H6.57V58.872H12.42V63.786C10.956 65.406 9.126 66.216 6.93 66.216ZM24.7785 66H20.6385L18.9825 62.22H17.6685V66H14.0325V53.994H20.4405C21.7965 53.994 22.8525 54.39 23.6085 55.182C24.3765 55.962 24.7605 56.94 24.7605 58.116C24.7605 59.052 24.5445 59.82 24.1125 60.42C23.6925 61.02 23.1885 61.464 22.6005 61.752L24.7785 66ZM19.8825 59.052C20.2185 59.052 20.5005 58.974 20.7285 58.818C20.9565 58.65 21.0705 58.41 21.0705 58.098C21.0705 57.798 20.9565 57.57 20.7285 57.414C20.5005 57.246 20.2185 57.162 19.8825 57.162H17.6685V59.052H19.8825ZM35.3398 66H26.2318V53.994H35.3398V57.162H29.8678V58.35H35.2138V61.518H29.8678V62.832H35.3398V66ZM46.0624 66H36.9544V53.994H46.0624V57.162H40.5904V58.35H45.9364V61.518H40.5904V62.832H46.0624V66ZM59.2331 66H55.7411L51.3131 59.916V66H47.6771V53.994H51.4211L55.5971 59.682V53.994H59.2331V66ZM67.1351 66.216C65.2391 66.216 63.6611 65.64 62.4011 64.488C61.1531 63.324 60.5291 61.83 60.5291 60.006C60.5291 58.17 61.1531 56.676 62.4011 55.524C63.6491 54.372 65.2271 53.796 67.1351 53.796C68.5751 53.796 69.7331 54.132 70.6091 54.804C71.4971 55.476 72.1571 56.304 72.5891 57.288L69.4571 58.746C69.3011 58.266 69.0071 57.858 68.5751 57.522C68.1431 57.174 67.6631 57 67.1351 57C66.2711 57 65.5691 57.288 65.0291 57.864C64.4891 58.44 64.2191 59.154 64.2191 60.006C64.2191 60.858 64.4891 61.572 65.0291 62.148C65.5691 62.724 66.2711 63.012 67.1351 63.012C67.6631 63.012 68.1431 62.844 68.5751 62.508C69.0071 62.16 69.3011 61.746 69.4571 61.266L72.5891 62.706C72.3971 63.15 72.1571 63.564 71.8691 63.948C71.5811 64.32 71.2211 64.686 70.7891 65.046C70.3571 65.406 69.8231 65.694 69.1871 65.91C68.5631 66.114 67.8791 66.216 67.1351 66.216ZM77.3639 66H73.7279V53.994H77.3639V66ZM85.5101 66H81.8741V57.162H78.6521V53.994H88.7141V57.162H85.5101V66ZM96.8452 66H93.2092V61.23L88.7092 53.994H92.7952L95.0272 58.044L97.2232 53.994H101.309L96.8452 61.23V66Z" fill="#13AA57"/>
</svg>
